<?xml version="1.0" encoding="UTF-8" standalone="no"?>
<!-- Created with Inkscape (http://www.inkscape.org/) -->

<svg
   xmlns:dc="http://purl.org/dc/elements/1.1/"
   xmlns:cc="http://creativecommons.org/ns#"
   xmlns:rdf="http://www.w3.org/1999/02/22-rdf-syntax-ns#"
   xmlns:svg="http://www.w3.org/2000/svg"
   xmlns="http://www.w3.org/2000/svg"
   xmlns:sodipodi="http://sodipodi.sourceforge.net/DTD/sodipodi-0.dtd"
   xmlns:inkscape="http://www.inkscape.org/namespaces/inkscape"
   width="154mm"
   height="111mm"
   viewBox="0 0 154 111"
   version="1.1"
   id="svg8"
   inkscape:version="0.92.4 (5da689c313, 2019-01-14)"
   sodipodi:docname="Ham_logo.svg"
   inkscape:export-filename="O:\Mahksy\Pics\QSL\QSL_Back.png"
   inkscape:export-xdpi="300"
   inkscape:export-ydpi="300">
  <defs
     id="defs2">
    <marker
       inkscape:isstock="true"
       style="overflow:visible;"
       id="marker1567"
       refX="0.0"
       refY="0.0"
       orient="auto"
       inkscape:stockid="Arrow1Mend">
      <path
         transform="scale(0.4) rotate(180) translate(10,0)"
         style="fill-rule:evenodd;stroke:#000000;stroke-width:1pt;stroke-opacity:1;fill:#000000;fill-opacity:1"
         d="M 0.0,0.0 L 5.0,-5.0 L -12.5,0.0 L 5.0,5.0 L 0.0,0.0 z "
         id="path1565" />
    </marker>
    <marker
       inkscape:isstock="true"
       style="overflow:visible;"
       id="marker1327"
       refX="0.0"
       refY="0.0"
       orient="auto"
       inkscape:stockid="Arrow1Mend">
      <path
         transform="scale(0.4) rotate(180) translate(10,0)"
         style="fill-rule:evenodd;stroke:#000000;stroke-width:1pt;stroke-opacity:1;fill:#000000;fill-opacity:1"
         d="M 0.0,0.0 L 5.0,-5.0 L -12.5,0.0 L 5.0,5.0 L 0.0,0.0 z "
         id="path1325" />
    </marker>
    <marker
       inkscape:isstock="true"
       style="overflow:visible;"
       id="marker1197"
       refX="0.0"
       refY="0.0"
       orient="auto"
       inkscape:stockid="Arrow1Mend">
      <path
         transform="scale(0.4) rotate(180) translate(10,0)"
         style="fill-rule:evenodd;stroke:#000000;stroke-width:1pt;stroke-opacity:1;fill:#000000;fill-opacity:1"
         d="M 0.0,0.0 L 5.0,-5.0 L -12.5,0.0 L 5.0,5.0 L 0.0,0.0 z "
         id="path1195" />
    </marker>
    <marker
       inkscape:stockid="Arrow1Send"
       orient="auto"
       refY="0.0"
       refX="0.0"
       id="Arrow1Send"
       style="overflow:visible;"
       inkscape:isstock="true">
      <path
         id="path1478"
         d="M 0.0,0.0 L 5.0,-5.0 L -12.5,0.0 L 5.0,5.0 L 0.0,0.0 z "
         style="fill-rule:evenodd;stroke:#000000;stroke-width:1pt;stroke-opacity:1;fill:#000000;fill-opacity:1"
         transform="scale(0.2) rotate(180) translate(6,0)" />
    </marker>
    <marker
       inkscape:stockid="Arrow1Mend"
       orient="auto"
       refY="0.0"
       refX="0.0"
       id="marker2590"
       style="overflow:visible;"
       inkscape:isstock="true">
      <path
         id="path2588"
         d="M 0.0,0.0 L 5.0,-5.0 L -12.5,0.0 L 5.0,5.0 L 0.0,0.0 z "
         style="fill-rule:evenodd;stroke:#000000;stroke-width:1pt;stroke-opacity:1;fill:#000000;fill-opacity:1"
         transform="scale(0.4) rotate(180) translate(10,0)" />
    </marker>
    <marker
       inkscape:isstock="true"
       style="overflow:visible;"
       id="marker2508"
       refX="0.0"
       refY="0.0"
       orient="auto"
       inkscape:stockid="Arrow1Mend">
      <path
         transform="scale(0.4) rotate(180) translate(10,0)"
         style="fill-rule:evenodd;stroke:#000000;stroke-width:1pt;stroke-opacity:1;fill:#000000;fill-opacity:1"
         d="M 0.0,0.0 L 5.0,-5.0 L -12.5,0.0 L 5.0,5.0 L 0.0,0.0 z "
         id="path2506" />
    </marker>
    <marker
       inkscape:isstock="true"
       style="overflow:visible;"
       id="marker2398"
       refX="0.0"
       refY="0.0"
       orient="auto"
       inkscape:stockid="Arrow1Mend">
      <path
         transform="scale(0.4) rotate(180) translate(10,0)"
         style="fill-rule:evenodd;stroke:#000000;stroke-width:1pt;stroke-opacity:1;fill:#000000;fill-opacity:1"
         d="M 0.0,0.0 L 5.0,-5.0 L -12.5,0.0 L 5.0,5.0 L 0.0,0.0 z "
         id="path2396" />
    </marker>
    <marker
       inkscape:stockid="Arrow1Mend"
       orient="auto"
       refY="0.0"
       refX="0.0"
       id="Arrow1Mend"
       style="overflow:visible;"
       inkscape:isstock="true"
       inkscape:collect="always">
      <path
         id="path1472"
         d="M 0.0,0.0 L 5.0,-5.0 L -12.5,0.0 L 5.0,5.0 L 0.0,0.0 z "
         style="fill-rule:evenodd;stroke:#000000;stroke-width:1pt;stroke-opacity:1;fill:#000000;fill-opacity:1"
         transform="scale(0.4) rotate(180) translate(10,0)" />
    </marker>
    <marker
       inkscape:stockid="Arrow1Lend"
       orient="auto"
       refY="0.0"
       refX="0.0"
       id="Arrow1Lend"
       style="overflow:visible;"
       inkscape:isstock="true">
      <path
         id="path1466"
         d="M 0.0,0.0 L 5.0,-5.0 L -12.5,0.0 L 5.0,5.0 L 0.0,0.0 z "
         style="fill-rule:evenodd;stroke:#000000;stroke-width:1pt;stroke-opacity:1;fill:#000000;fill-opacity:1"
         transform="scale(0.8) rotate(180) translate(12.5,0)" />
    </marker>
    <marker
       inkscape:isstock="true"
       style="overflow:visible"
       id="marker1962"
       refX="0"
       refY="0"
       orient="auto"
       inkscape:stockid="Arrow1Lstart">
      <path
         transform="matrix(0.8,0,0,0.8,10,0)"
         style="fill:#000000;fill-opacity:1;fill-rule:evenodd;stroke:#000000;stroke-width:1.00000003pt;stroke-opacity:1"
         d="M 0,0 5,-5 -12.5,0 5,5 Z"
         id="path1960"
         inkscape:connector-curvature="0" />
    </marker>
    <marker
       inkscape:isstock="true"
       style="overflow:visible"
       id="marker1910"
       refX="0"
       refY="0"
       orient="auto"
       inkscape:stockid="Arrow1Lstart">
      <path
         transform="matrix(0.8,0,0,0.8,10,0)"
         style="fill:#000000;fill-opacity:1;fill-rule:evenodd;stroke:#000000;stroke-width:1.00000003pt;stroke-opacity:1"
         d="M 0,0 5,-5 -12.5,0 5,5 Z"
         id="path1908"
         inkscape:connector-curvature="0" />
    </marker>
    <marker
       inkscape:isstock="true"
       style="overflow:visible"
       id="marker1864"
       refX="0"
       refY="0"
       orient="auto"
       inkscape:stockid="Arrow1Lstart">
      <path
         transform="matrix(0.8,0,0,0.8,10,0)"
         style="fill:#000000;fill-opacity:1;fill-rule:evenodd;stroke:#000000;stroke-width:1.00000003pt;stroke-opacity:1"
         d="M 0,0 5,-5 -12.5,0 5,5 Z"
         id="path1862"
         inkscape:connector-curvature="0" />
    </marker>
    <marker
       inkscape:isstock="true"
       style="overflow:visible"
       id="marker1824"
       refX="0"
       refY="0"
       orient="auto"
       inkscape:stockid="Arrow1Lstart">
      <path
         transform="matrix(0.8,0,0,0.8,10,0)"
         style="fill:#000000;fill-opacity:1;fill-rule:evenodd;stroke:#000000;stroke-width:1.00000003pt;stroke-opacity:1"
         d="M 0,0 5,-5 -12.5,0 5,5 Z"
         id="path1822"
         inkscape:connector-curvature="0" />
    </marker>
    <marker
       inkscape:isstock="true"
       style="overflow:visible"
       id="marker1790"
       refX="0"
       refY="0"
       orient="auto"
       inkscape:stockid="Arrow1Lstart">
      <path
         transform="matrix(0.8,0,0,0.8,10,0)"
         style="fill:#000000;fill-opacity:1;fill-rule:evenodd;stroke:#000000;stroke-width:1.00000003pt;stroke-opacity:1"
         d="M 0,0 5,-5 -12.5,0 5,5 Z"
         id="path1788"
         inkscape:connector-curvature="0" />
    </marker>
    <marker
       inkscape:isstock="true"
       style="overflow:visible"
       id="marker1762"
       refX="0"
       refY="0"
       orient="auto"
       inkscape:stockid="Arrow1Lstart">
      <path
         transform="matrix(0.8,0,0,0.8,10,0)"
         style="fill:#000000;fill-opacity:1;fill-rule:evenodd;stroke:#000000;stroke-width:1.00000003pt;stroke-opacity:1"
         d="M 0,0 5,-5 -12.5,0 5,5 Z"
         id="path1760"
         inkscape:connector-curvature="0" />
    </marker>
    <marker
       inkscape:isstock="true"
       style="overflow:visible"
       id="marker1740"
       refX="0"
       refY="0"
       orient="auto"
       inkscape:stockid="Arrow1Lstart">
      <path
         transform="matrix(0.8,0,0,0.8,10,0)"
         style="fill:#000000;fill-opacity:1;fill-rule:evenodd;stroke:#000000;stroke-width:1.00000003pt;stroke-opacity:1"
         d="M 0,0 5,-5 -12.5,0 5,5 Z"
         id="path1738"
         inkscape:connector-curvature="0" />
    </marker>
    <inkscape:path-effect
       is_visible="true"
       id="path-effect4138"
       effect="spiro" />
    <inkscape:perspective
       id="perspective2700"
       inkscape:persp3d-origin="372.04723 : 350.7874 : 1"
       inkscape:vp_z="744.09445 : 526.1811 : 1"
       inkscape:vp_y="0 : 1000 : 0"
       inkscape:vp_x="0 : 526.1811 : 1"
       sodipodi:type="inkscape:persp3d" />
    <inkscape:perspective
       sodipodi:type="inkscape:persp3d"
       inkscape:vp_x="0 : 526.1811 : 1"
       inkscape:vp_y="0 : 1000 : 0"
       inkscape:vp_z="744.09445 : 526.1811 : 1"
       inkscape:persp3d-origin="372.04723 : 350.7874 : 1"
       id="perspective3990" />
  </defs>
  <sodipodi:namedview
     id="base"
     pagecolor="#ffffff"
     bordercolor="#666666"
     borderopacity="1.0"
     inkscape:pageopacity="0.0"
     inkscape:pageshadow="2"
     inkscape:zoom="2.0000001"
     inkscape:cx="289.30343"
     inkscape:cy="219.2933"
     inkscape:document-units="mm"
     inkscape:current-layer="g27951"
     showgrid="false"
     showguides="false"
     inkscape:guide-bbox="true"
     inkscape:snap-object-midpoints="true"
     inkscape:snap-midpoints="true"
     inkscape:window-width="1920"
     inkscape:window-height="1017"
     inkscape:window-x="-8"
     inkscape:window-y="-8"
     inkscape:window-maximized="1"
     inkscape:snap-intersection-paths="true"
     inkscape:snap-others="true"
     inkscape:snap-global="true"
     inkscape:snap-nodes="true"
     inkscape:object-nodes="true"
     inkscape:snap-smooth-nodes="true"
     inkscape:snap-bbox="true"
     inkscape:bbox-nodes="true"
     inkscape:lockguides="false"
     inkscape:object-paths="false"
     inkscape:bbox-paths="true"
     inkscape:snap-bbox-edge-midpoints="true">
    <sodipodi:guide
       position="-146.853,52.5"
       orientation="0,1"
       id="guide1388"
       inkscape:locked="false"
       inkscape:label=""
       inkscape:color="rgb(0,0,255)" />
    <sodipodi:guide
       position="74.000001,107.70962"
       orientation="1,0"
       id="guide1390"
       inkscape:locked="false"
       inkscape:label=""
       inkscape:color="rgb(0,0,255)" />
    <sodipodi:guide
       position="-7.5595238,111"
       orientation="0,1"
       id="guide2795"
       inkscape:locked="false"
       inkscape:label=""
       inkscape:color="rgb(0,0,255)" />
    <sodipodi:guide
       position="9.4494048,108"
       orientation="0,1"
       id="guide2797"
       inkscape:locked="false"
       inkscape:label=""
       inkscape:color="rgb(0,0,255)" />
    <sodipodi:guide
       position="20.599702,0"
       orientation="0,1"
       id="guide2799"
       inkscape:locked="false"
       inkscape:label=""
       inkscape:color="rgb(0,0,255)" />
    <sodipodi:guide
       position="23.434524,3"
       orientation="0,1"
       id="guide2801"
       inkscape:locked="false"
       inkscape:label=""
       inkscape:color="rgb(0,0,255)" />
    <sodipodi:guide
       position="0,89.580358"
       orientation="1,0"
       id="guide2803"
       inkscape:locked="false"
       inkscape:label=""
       inkscape:color="rgb(0,0,255)" />
    <sodipodi:guide
       position="3,88.446429"
       orientation="1,0"
       id="guide2805"
       inkscape:locked="false"
       inkscape:label=""
       inkscape:color="rgb(0,0,255)" />
    <sodipodi:guide
       position="151,99.407738"
       orientation="1,0"
       id="guide2807"
       inkscape:locked="false"
       inkscape:label=""
       inkscape:color="rgb(0,0,255)" />
    <sodipodi:guide
       position="154,97.328869"
       orientation="1,0"
       id="guide2809"
       inkscape:locked="false"
       inkscape:label=""
       inkscape:color="rgb(0,0,255)" />
    <sodipodi:guide
       position="28,26.059"
       orientation="0,1"
       id="guide3452"
       inkscape:locked="false"
       inkscape:label=""
       inkscape:color="rgb(0,0,255)" />
    <sodipodi:guide
       position="10.710826,14.5"
       orientation="0,1"
       id="guide7147"
       inkscape:locked="false"
       inkscape:label=""
       inkscape:color="rgb(0,0,255)" />
    <sodipodi:guide
       position="32.927606,23.573172"
       orientation="1,0"
       id="guide969"
       inkscape:locked="false" />
    <sodipodi:guide
       position="69.503441,26.059"
       orientation="1,0"
       id="guide973"
       inkscape:locked="false" />
    <sodipodi:guide
       position="97.432813,23.878646"
       orientation="1,0"
       id="guide977"
       inkscape:locked="false" />
    <sodipodi:guide
       position="115.98672,22.191927"
       orientation="1,0"
       id="guide981"
       inkscape:locked="false" />
    <sodipodi:guide
       position="132.82083,28.310417"
       orientation="1,0"
       id="guide985"
       inkscape:locked="false" />
    <sodipodi:guide
       position="143.91796,17.492791"
       orientation="1,0"
       id="guide989"
       inkscape:locked="false" />
    <sodipodi:guide
       position="135.00365,9.161198"
       orientation="0,1"
       id="guide993"
       inkscape:locked="false" />
    <sodipodi:guide
       position="54.622103,27.55212"
       orientation="1,0"
       id="guide997"
       inkscape:locked="false" />
    <sodipodi:guide
       position="74.000002,96.330959"
       orientation="0,1"
       id="guide1631"
       inkscape:locked="false" />
    <sodipodi:guide
       position="128.11402,87.089353"
       orientation="0,1"
       id="guide1823"
       inkscape:locked="false" />
  </sodipodi:namedview>
  <metadata
     id="metadata5">
    <rdf:RDF>
      <cc:Work
         rdf:about="">
        <dc:format>image/svg+xml</dc:format>
        <dc:type
           rdf:resource="http://purl.org/dc/dcmitype/StillImage" />
        <dc:title></dc:title>
      </cc:Work>
    </rdf:RDF>
  </metadata>
  <g
     inkscape:label="Layer 1"
     inkscape:groupmode="layer"
     id="layer1"
     transform="translate(0,-186)"
     style="display:inline">
    <text
       xml:space="preserve"
       style="font-style:normal;font-weight:normal;font-size:10.58333302px;line-height:1.25;font-family:sans-serif;letter-spacing:0px;word-spacing:0px;fill:#000000;fill-opacity:1;stroke:none;stroke-width:0.26458332"
       x="116.95898"
       y="281.58752"
       id="text955"><tspan
         sodipodi:role="line"
         x="116.95898"
         y="291.24301"
         style="font-style:normal;font-variant:normal;font-weight:normal;font-stretch:normal;font-size:2.82222223px;line-height:0;font-family:'ADAM.CG PRO';-inkscape-font-specification:'ADAM.CG PRO';writing-mode:lr-tb;stroke-width:0.26458332"
         id="tspan953" /></text>
    <text
       xml:space="preserve"
       style="font-style:normal;font-weight:normal;font-size:3.52777767px;line-height:1.25;font-family:sans-serif;letter-spacing:0px;word-spacing:0px;fill:#000000;fill-opacity:1;stroke:none;stroke-width:0.26458332"
       x="38.396656"
       y="220.87405"
       id="text1560"><tspan
         sodipodi:role="line"
         id="tspan1558"
         x="38.396656"
         y="224.09256"
         style="stroke-width:0.26458332" /></text>
    <g
       id="g27951">
      <g
         id="g1869"
         transform="translate(15.609854,38.734528)">
        <g
           id="g1689">
          <rect
             style="opacity:1;fill:none;fill-opacity:1;stroke:#000000;stroke-width:1.40915585;stroke-linecap:round;stroke-linejoin:round;stroke-miterlimit:4;stroke-dasharray:none;stroke-dashoffset:0;stroke-opacity:1;paint-order:stroke fill markers"
             id="rect458"
             width="16.836151"
             height="16.836151"
             x="-113.98793"
             y="120.97372"
             ry="0"
             transform="matrix(0.50525069,-0.86297262,0.50525069,0.86297262,0,0)" />
          <path
             inkscape:connector-curvature="0"
             id="path469"
             d="m 10.074993,193.49682 1.778465,3.51205 v 1.94144 h 0.388974 v -1.90064 l 1.75466,-3.55263 h -0.399396 l -0.219191,0.37968 -1.136073,2.29936 v -2.29936 -0.37968 H 11.85369 v 0.37968 2.27624 l -1.153759,-2.27624 -0.218962,-0.37968 z"
             style="fill:#000000;fill-rule:evenodd;stroke:none;stroke-width:0.11605591" />
          <path
             inkscape:connector-curvature="0"
             id="path471"
             d="m 11.831425,208.1404 v 1.79071 h -1.75784 c -0.1851661,0 -0.2775122,0.0947 -0.277442,0.1895 3.51e-5,0.0377 0.015352,0.0752 0.044657,0.10698 H 9.83905 l 0.020177,0.0172 c 0.00307,0.002 0.00522,0.005 0.00833,0.007 l 1.973171,1.70593 0.0013,0.001 a 0.290708,0.290708 0 0 0 0.194036,0.0748 0.290708,0.290708 0 0 0 0.194035,-0.0748 l 2.00309,-1.73177 h -0.0039 c 0.03066,-0.0318 0.04669,-0.069 0.04669,-0.10677 0,-0.0948 -0.09663,-0.18949 -0.289908,-0.18949 h -1.765779 v -1.79093 z"
             style="fill:#000000;fill-rule:evenodd;stroke:none;stroke-width:0.11605591" />
          <path
             inkscape:connector-curvature="0"
             id="path480"
             d="m 10.070207,199.34012 v 0.45084 c -0.2110934,0.0274 -0.4162437,0.0794 -0.62085,0.13737 l -0.1754458,0.0601 -0.1657037,0.0684 -0.1539,0.0757 -0.1425744,0.0827 -0.1305646,0.09 -0.1178791,0.097 -0.1029041,0.10427 -0.088631,0.1122 -0.072305,0.119 -0.053952,0.12626 -0.033556,0.13215 -0.011799,0.13895 0.022678,0.20536 0.064611,0.19177 0.1010925,0.1725 0.129661,0.15277 0.1106109,0.0979 -0.1165062,0.10699 -0.1276169,0.15732 -0.099285,0.17589 -0.063238,0.19471 -0.021976,0.20967 0.021537,0.21489 0.06369,0.19743 0.099961,0.1768 0.1285161,0.15595 0.075937,0.0685 -0.07706,0.0696 -0.1285205,0.15618 -0.098834,0.17816 -0.06369,0.19789 -0.021537,0.21579 0.022678,0.20491 0.06483,0.1895 0.1008732,0.17227 0.1285205,0.15323 0.118774,0.10676 -0.1133305,0.0963 -0.1305601,0.14802 -0.102233,0.16796 -0.066423,0.18745 -0.023116,0.20061 0.01294,0.1589 0.038732,0.1496 0.061659,0.14054 0.082503,0.13056 0.1004259,0.12014 0.1160544,0.11061 0.1307838,0.1011 0.1423551,0.092 0.1539,0.0832 0.1648001,0.0753 0.1743054,0.0671 0.182021,0.0583 c 0.2034001,0.0582 0.4104891,0.1026 0.620167,0.13283 v 0.0401 h 0.388741 v -0.37264 l -0.362441,-0.0472 -0.184517,-0.0315 -0.1781566,-0.0385 -0.1711384,-0.0458 -0.1625236,-0.0526 -0.1527771,-0.0585 -0.1414471,-0.0641 -0.1296566,-0.0705 -0.1160588,-0.0744 -0.1008644,-0.0789 -0.086354,-0.0811 -0.070274,-0.0843 -0.053943,-0.0859 -0.038293,-0.0877 -0.023335,-0.09 -0.00746,-0.0911 0.014036,-0.12217 0.038775,-0.11061 0.064826,-0.10632 0.090675,-0.10223 0.1144666,-0.0979 0.059387,-0.039 c 0.2019131,0.11689 0.4237535,0.19649 0.645107,0.27178 l 0.2051416,0.0585 0.2015054,0.0474 0.195847,0.0367 0.186328,0.0263 0.173849,0.0159 0.159809,0.005 0.31212,-0.014 0.292637,-0.0401 0.267019,-0.061 0.237557,-0.0787 0.203098,-0.0936 0.167282,-0.10881 0.129657,-0.13713 0.06573,-0.19358 -0.07434,-0.17907 -0.137596,-0.11696 -0.167516,-0.0864 -0.201505,-0.0721 -0.234157,-0.0589 -0.263388,-0.0465 -0.289456,-0.0299 -0.307827,-0.0104 -0.155492,0.005 -0.170915,0.0132 -0.184736,0.0227 -0.194487,0.0324 -0.2012769,0.0417 -0.2040011,0.0528 c -0.2218886,0.0684 -0.4453432,0.14044 -0.6494144,0.25048 l -0.063923,-0.0453 -0.1149316,-0.10313 -0.090662,-0.1079 -0.065734,-0.1122 -0.039433,-0.11583 -0.014036,-0.12422 0.014036,-0.13849 0.039916,-0.12535 0.064826,-0.11583 0.089087,-0.10835 0.1117515,-0.1011 0.1078826,0.0601 0.1938159,0.0868 0.2003692,0.0737 0.2046897,0.061 0.2044528,0.0506 0.2024263,0.0401 0.196751,0.0295 0.186548,0.0211 0.174989,0.012 0.475109,0.003 0.298519,-0.0295 0.268831,-0.0526 0.235513,-0.0712 0.198571,-0.0852 0.162063,-0.10019 0.127393,-0.12557 0.06642,-0.17771 -0.06597,-0.18995 -0.132828,-0.13329 -0.168419,-0.10313 -0.203549,-0.0852 -0.236417,-0.0712 -0.265664,-0.0542 -0.2915,-0.0347 -0.309406,-0.0127 -0.336373,0.0157 -0.187236,0.0202 -0.196527,0.0295 -0.2019615,0.039 -0.2051415,0.0501 -0.204001,0.0605 -0.2003823,0.0737 -0.1931185,0.0868 -0.1053999,0.058 -0.1122033,-0.10019 -0.088631,-0.10789 -0.06483,-0.1147 -0.040355,-0.1249 -0.014036,-0.13736 0.014036,-0.13215 0.039916,-0.12263 0.065282,-0.11606 0.089758,-0.11038 0.1133393,-0.10472 0.050088,-0.0365 c 0.1463116,0.0768 0.2981938,0.14311 0.4544888,0.19811 l 0.2042203,0.0646 0.2051415,0.0537 0.2019611,0.0421 0.195391,0.0333 0.186328,0.0231 0.173854,0.0136 0.158668,0.004 0.309405,-0.012 0.290373,-0.0347 0.264529,-0.0528 0.234824,-0.0673 0.200838,-0.0796 0.165239,-0.0932 0.1351,-0.12104 0.07231,-0.17907 -0.06641,-0.19222 -0.132385,-0.13532 -0.167283,-0.10518 -0.203549,-0.0891 -0.236416,-0.0737 -0.266792,-0.0574 -0.291496,-0.0369 -0.310997,-0.0132 -0.162524,0.005 -0.175893,0.0154 -0.188592,0.0247 -0.196299,0.0351 -0.2026451,0.0465 -0.2051371,0.0574 -0.2040055,0.0684 c -0.1527858,0.0616 -0.3056419,0.12211 -0.446545,0.20582 l -0.045333,-0.031 -0.1137911,-0.10155 -0.090214,-0.10541 -0.064826,-0.11152 -0.039916,-0.11741 -0.014036,-0.12943 0.00588,-0.0728 0.018818,-0.0748 0.032635,-0.0753 0.045785,-0.0757 0.060523,-0.0768 0.075481,-0.0759 0.09021,-0.0737 0.1035928,-0.0723 0.117866,-0.0678 0.1305645,-0.0644 0.1425876,-0.0589 0.1543518,-0.0526 0.1648001,-0.0469 0.1747572,-0.0399 0.1840648,-0.0322 0.367201,-0.0469 v -0.78383 z m 0.667776,2.30796 0.279262,0.0116 0.258634,0.0326 0.232565,0.0499 0.19879,0.0621 0.156628,0.0687 0.104045,0.0653 0.01724,0.0184 -0.113344,0.0664 -0.158659,0.0626 -0.19993,0.058 -0.233017,0.0458 -0.259313,0.0315 -0.28017,0.0107 -0.134868,-0.004 -0.323916,-0.0331 -0.17884,-0.0301 -0.1845041,-0.0388 -0.1867801,-0.0485 -0.1836045,-0.058 -0.1847361,-0.071 h -8.773e-4 c 0.1160808,-0.0537 0.2406667,-0.0933 0.3626734,-0.13442 l 0.1863284,-0.0514 0.1836003,-0.0421 0.179073,-0.032 0.169546,-0.0222 0.156633,-0.0138 z m 0,1.68372 0.280842,0.0107 0.259093,0.0315 0.232114,0.0476 0.199246,0.0594 0.156628,0.0664 0.10358,0.0632 0.01904,0.0188 -0.113563,0.0748 -0.152102,0.0653 -0.194474,0.0589 -0.230302,0.0453 -0.260905,0.0252 -0.436114,-0.002 -0.328903,-0.0299 -0.179749,-0.0274 c -0.2683225,-0.0521 -0.5354828,-0.11436 -0.78383,-0.22599 v -4.3e-4 c 0.2467242,-0.11004 0.5139065,-0.17054 0.779527,-0.22214 l 0.180196,-0.027 0.170687,-0.0184 z m 8.77e-4,1.6674 0.281763,0.0102 0.261344,0.0263 0.235293,0.0415 0.201506,0.0512 0.158672,0.0562 0.106979,0.0558 -0.01904,0.0202 -0.10518,0.0685 -0.156629,0.0721 -0.197421,0.0657 -0.232114,0.0528 -0.257738,0.0351 -0.277894,0.0132 -0.132828,-0.005 -0.153461,-0.0136 -0.167283,-0.0236 -0.178156,-0.0338 -0.1836136,-0.0433 -0.1860915,-0.0526 -0.1836045,-0.0632 -0.1613875,-0.0646 v -8.8e-4 l 0.1602515,-0.0589 0.1847405,-0.0573 0.1860915,-0.0474 0.1847406,-0.0386 0.17817,-0.0295 0.320055,-0.0331 z"
             style="fill:#000000;fill-rule:evenodd;stroke:none;stroke-width:0.11605591" />
          <rect
             style="opacity:1;fill:#000000;fill-opacity:1;stroke:none;stroke-width:0.43863648;stroke-linecap:round;stroke-linejoin:round;stroke-miterlimit:4;stroke-dasharray:none;stroke-dashoffset:0;stroke-opacity:1;paint-order:stroke fill markers"
             id="rect490"
             width="0.38980359"
             height="3.8159719"
             x="14.353744"
             y="203.93459" />
          <rect
             transform="rotate(90)"
             y="-15.871943"
             x="203.73969"
             height="2.6465611"
             width="0.38980359"
             id="rect492"
             style="opacity:1;fill:#000000;fill-opacity:1;stroke:none;stroke-width:0.43863648;stroke-linecap:round;stroke-linejoin:round;stroke-miterlimit:4;stroke-dasharray:none;stroke-dashoffset:0;stroke-opacity:1;paint-order:stroke fill markers" />
          <rect
             transform="scale(-1)"
             y="-203.15608"
             x="-14.743574"
             height="3.8159719"
             width="0.38980359"
             id="rect498"
             style="opacity:1;fill:#000000;fill-opacity:1;stroke:none;stroke-width:0.43863648;stroke-linecap:round;stroke-linejoin:round;stroke-miterlimit:4;stroke-dasharray:none;stroke-dashoffset:0;stroke-opacity:1;paint-order:stroke fill markers" />
          <rect
             style="opacity:1;fill:#000000;fill-opacity:1;stroke:none;stroke-width:0.43863648;stroke-linecap:round;stroke-linejoin:round;stroke-miterlimit:4;stroke-dasharray:none;stroke-dashoffset:0;stroke-opacity:1;paint-order:stroke fill markers"
             id="rect500"
             width="0.38980359"
             height="2.6465611"
             x="-203.35098"
             y="13.225373"
             transform="rotate(-90)" />
          <rect
             transform="rotate(-90)"
             y="10.07021"
             x="-199.34012"
             height="4.6736064"
             width="0.38980359"
             id="rect529"
             style="opacity:1;fill:#000000;fill-opacity:1;stroke:none;stroke-width:0.43863648;stroke-linecap:round;stroke-linejoin:round;stroke-miterlimit:4;stroke-dasharray:none;stroke-dashoffset:0;stroke-opacity:1;paint-order:stroke fill markers" />
          <rect
             style="opacity:1;fill:#000000;fill-opacity:1;stroke:none;stroke-width:0.43863645;stroke-linecap:round;stroke-linejoin:round;stroke-miterlimit:4;stroke-dasharray:none;stroke-dashoffset:0;stroke-opacity:1;paint-order:stroke fill markers"
             id="rect531"
             width="0.38980359"
             height="4.5632486"
             x="-208.14035"
             y="10.180299"
             transform="rotate(-90)" />
          <rect
             transform="scale(-1)"
             y="-207.75055"
             x="-10.570103"
             height="0.23210567"
             width="0.38980359"
             id="rect540"
             style="opacity:1;fill:#000000;fill-opacity:1;stroke:none;stroke-width:0.43863648;stroke-linecap:round;stroke-linejoin:round;stroke-miterlimit:4;stroke-dasharray:none;stroke-dashoffset:0;stroke-opacity:1;paint-order:stroke fill markers" />
          <path
             inkscape:connector-curvature="0"
             id="path548"
             d="m 13.485567,205.2933 2.061977,-3.57146"
             style="fill:none;stroke:#000000;stroke-width:0.11623866;stroke-linecap:butt;stroke-linejoin:miter;stroke-miterlimit:4;stroke-dasharray:none;stroke-opacity:1;marker-end:url(#marker1567)" />
        </g>
        <g
           transform="translate(0.44906416)"
           id="g1696">
          <rect
             transform="matrix(0.50525069,-0.86297262,0.50525069,0.86297262,0,0)"
             ry="0"
             y="144.94992"
             x="-90.011734"
             height="16.836151"
             width="16.836151"
             id="rect1171"
             style="opacity:1;fill:none;fill-opacity:1;stroke:#000000;stroke-width:1.40915585;stroke-linecap:round;stroke-linejoin:round;stroke-miterlimit:4;stroke-dasharray:none;stroke-dashoffset:0;stroke-opacity:1;paint-order:stroke fill markers" />
          <g
             id="g1461"
             transform="translate(-0.07753935,0.11658446)">
            <path
               inkscape:connector-curvature="0"
               id="path1173"
               d="m 34.248286,193.8856 1.778465,3.51205 v 1.94144 h 0.388974 v -1.90064 l 1.75466,-3.55263 h -0.399396 l -0.219191,0.37968 -1.136073,2.29936 v -2.29936 -0.37968 h -0.388742 v 0.37968 2.27624 l -1.153759,-2.27624 -0.218962,-0.37968 z"
               style="fill:#000000;fill-rule:evenodd;stroke:none;stroke-width:0.11605591" />
            <path
               inkscape:connector-curvature="0"
               id="path1175"
               d="m 36.136974,207.51906 v 1.79071 h -1.75784 c -0.185166,0 -0.277512,0.0947 -0.277442,0.1895 3.5e-5,0.0377 0.01535,0.0752 0.04466,0.10698 h -0.0018 l 0.02018,0.0172 c 0.0031,0.002 0.0052,0.005 0.0083,0.007 l 1.973171,1.70593 0.0013,0.001 a 0.290708,0.290708 0 0 0 0.194036,0.0748 0.290708,0.290708 0 0 0 0.194035,-0.0748 l 2.00309,-1.73177 h -0.0039 c 0.03066,-0.0318 0.04669,-0.069 0.04669,-0.10677 0,-0.0948 -0.09663,-0.18949 -0.289908,-0.18949 h -1.765779 v -1.79093 z"
               style="fill:#000000;fill-rule:evenodd;stroke:none;stroke-width:0.11605591" />
            <path
               inkscape:connector-curvature="0"
               id="path1177"
               d="m 36.026404,199.34012 v 0.45084 c -0.211093,0.0274 -0.416244,0.0794 -0.62085,0.13737 l -0.175446,0.0601 -0.165703,0.0684 -0.1539,0.0757 -0.142575,0.0827 -0.130564,0.09 -0.11788,0.097 -0.102904,0.10427 -0.08863,0.1122 -0.07231,0.119 -0.05395,0.12626 -0.03356,0.13215 -0.0118,0.13895 0.02268,0.20536 0.06461,0.19177 0.101093,0.1725 0.129661,0.15277 0.110611,0.0979 -0.116506,0.10699 -0.127617,0.15732 -0.09928,0.17589 -0.06324,0.19471 -0.02198,0.20967 0.02154,0.21489 0.06369,0.19743 0.09996,0.1768 0.128516,0.15595 0.07594,0.0685 -0.07706,0.0696 -0.128521,0.15618 -0.09883,0.17816 -0.06369,0.19789 -0.02154,0.21579 0.02268,0.20491 0.06483,0.1895 0.100873,0.17227 0.128521,0.15323 0.118774,0.10676 -0.113331,0.0963 -0.13056,0.14802 -0.102233,0.16796 -0.06642,0.18745 -0.02312,0.20061 0.01294,0.1589 0.03873,0.1496 0.06166,0.14054 0.0825,0.13056 0.100426,0.12014 0.116055,0.11061 0.130783,0.1011 0.142356,0.092 0.1539,0.0832 0.1648,0.0753 0.174305,0.0671 0.182021,0.0583 c 0.2034,0.0582 0.410489,0.1026 0.620167,0.13283 v 0.0401 h 0.388741 v -0.37264 l -0.362441,-0.0472 -0.184517,-0.0315 -0.178157,-0.0385 -0.171138,-0.0458 -0.162524,-0.0526 -0.152777,-0.0585 -0.141447,-0.0641 -0.129656,-0.0705 -0.116059,-0.0744 -0.100865,-0.0789 -0.08635,-0.0811 -0.07027,-0.0843 -0.05394,-0.0859 -0.03829,-0.0877 -0.02334,-0.09 -0.0075,-0.0911 0.01404,-0.12217 0.03878,-0.11061 0.06483,-0.10632 0.09068,-0.10223 0.114467,-0.0979 0.05939,-0.039 c 0.201913,0.11689 0.423754,0.19649 0.645107,0.27178 l 0.205142,0.0585 0.201505,0.0474 0.195847,0.0367 0.186328,0.0263 0.173849,0.0159 0.159809,0.005 0.31212,-0.014 0.292637,-0.0401 0.267019,-0.061 0.237557,-0.0787 0.203098,-0.0936 0.167282,-0.10881 0.129657,-0.13713 0.06573,-0.19358 -0.07434,-0.17907 -0.137596,-0.11696 -0.167516,-0.0864 -0.201505,-0.0721 -0.234157,-0.0589 -0.263388,-0.0465 -0.289456,-0.0299 -0.307827,-0.0104 -0.155492,0.005 -0.170915,0.0132 -0.184736,0.0227 -0.194487,0.0324 -0.201277,0.0417 -0.204001,0.0528 c -0.221889,0.0684 -0.445343,0.14044 -0.649414,0.25048 l -0.06392,-0.0453 -0.114932,-0.10313 -0.09066,-0.1079 -0.06573,-0.1122 -0.03943,-0.11583 -0.01404,-0.12422 0.01404,-0.13849 0.03992,-0.12535 0.06483,-0.11583 0.08909,-0.10835 0.111752,-0.1011 0.107882,0.0601 0.193816,0.0868 0.200369,0.0737 0.20469,0.061 0.204453,0.0506 0.202426,0.0401 0.196751,0.0295 0.186548,0.0211 0.174989,0.012 0.475109,0.003 0.298519,-0.0295 0.268831,-0.0526 0.235513,-0.0712 0.198571,-0.0852 0.162063,-0.10019 0.127393,-0.12557 0.06642,-0.17771 -0.06597,-0.18995 -0.132828,-0.13329 -0.168419,-0.10313 -0.203549,-0.0852 -0.236417,-0.0712 -0.265664,-0.0542 -0.2915,-0.0347 -0.309406,-0.0127 -0.336373,0.0157 -0.187236,0.0202 -0.196527,0.0295 -0.201961,0.039 -0.205142,0.0501 -0.204001,0.0605 -0.200382,0.0737 -0.193119,0.0868 -0.1054,0.058 -0.112203,-0.10019 -0.08863,-0.10789 -0.06483,-0.1147 -0.04035,-0.1249 -0.01404,-0.13736 0.01404,-0.13215 0.03992,-0.12263 0.06528,-0.11606 0.08976,-0.11038 0.113339,-0.10472 0.05009,-0.0365 c 0.146312,0.0768 0.298194,0.14311 0.454489,0.19811 l 0.20422,0.0646 0.205142,0.0537 0.201961,0.0421 0.195391,0.0333 0.186328,0.0231 0.173854,0.0136 0.158668,0.004 0.309405,-0.012 0.290373,-0.0347 0.264529,-0.0528 0.234824,-0.0673 0.200838,-0.0796 0.165239,-0.0932 0.1351,-0.12104 0.07231,-0.17907 -0.06641,-0.19222 -0.132385,-0.13532 -0.167283,-0.10518 -0.203549,-0.0891 -0.236416,-0.0737 -0.266792,-0.0574 -0.291496,-0.0369 -0.310997,-0.0132 -0.162524,0.005 -0.175893,0.0154 -0.188592,0.0247 -0.196299,0.0351 -0.202645,0.0465 -0.205137,0.0574 -0.204006,0.0684 c -0.152785,0.0616 -0.305642,0.12211 -0.446545,0.20582 l -0.04533,-0.031 -0.113791,-0.10155 -0.09021,-0.10541 -0.06483,-0.11152 -0.03992,-0.11741 -0.01404,-0.12943 0.0059,-0.0728 0.01882,-0.0748 0.03264,-0.0753 0.04578,-0.0757 0.06052,-0.0768 0.07548,-0.0759 0.09021,-0.0737 0.103593,-0.0723 0.117866,-0.0678 0.130565,-0.0644 0.142587,-0.0589 0.154352,-0.0526 0.1648,-0.0469 0.174757,-0.0399 0.184065,-0.0322 0.367201,-0.0469 v -0.78383 z m 0.667776,2.30796 0.279262,0.0116 0.258634,0.0326 0.232565,0.0499 0.19879,0.0621 0.156628,0.0687 0.104045,0.0653 0.01724,0.0184 -0.113344,0.0664 -0.158659,0.0626 -0.19993,0.058 -0.233017,0.0458 -0.259313,0.0315 -0.28017,0.0107 -0.134868,-0.004 -0.323916,-0.0331 -0.17884,-0.0301 -0.184504,-0.0388 -0.18678,-0.0485 -0.183605,-0.058 -0.184736,-0.071 h -8.77e-4 c 0.116081,-0.0537 0.240667,-0.0933 0.362673,-0.13442 l 0.186329,-0.0514 0.1836,-0.0421 0.179073,-0.032 0.169546,-0.0222 0.156633,-0.0138 z m 0,1.68372 0.280842,0.0107 0.259093,0.0315 0.232114,0.0476 0.199246,0.0594 0.156628,0.0664 0.10358,0.0632 0.01904,0.0188 -0.113563,0.0748 -0.152102,0.0653 -0.194474,0.0589 -0.230302,0.0453 -0.260905,0.0252 -0.436114,-0.002 -0.328903,-0.0299 -0.179749,-0.0274 c -0.268322,-0.0521 -0.535483,-0.11436 -0.78383,-0.22599 v -4.3e-4 c 0.246724,-0.11004 0.513907,-0.17054 0.779527,-0.22214 l 0.180196,-0.027 0.170687,-0.0184 z m 8.77e-4,1.6674 0.281763,0.0102 0.261344,0.0263 0.235293,0.0415 0.201506,0.0512 0.158672,0.0562 0.106979,0.0558 -0.01904,0.0202 -0.10518,0.0685 -0.156629,0.0721 -0.197421,0.0657 -0.232114,0.0528 -0.257738,0.0351 -0.277894,0.0132 -0.132828,-0.005 -0.153461,-0.0136 -0.167283,-0.0236 -0.178156,-0.0338 -0.183614,-0.0433 -0.186091,-0.0526 -0.183605,-0.0632 -0.161387,-0.0646 v -8.8e-4 l 0.160251,-0.0589 0.184741,-0.0573 0.186091,-0.0474 0.184741,-0.0386 0.17817,-0.0295 0.320055,-0.0331 z"
               style="fill:#000000;fill-rule:evenodd;stroke:none;stroke-width:0.11605591" />
          </g>
        </g>
        <g
           transform="translate(-0.32142741)"
           id="g1708">
          <rect
             transform="matrix(0.50525069,-0.86297262,0.50525069,0.86297262,0,0)"
             ry="0"
             y="170.133"
             x="-64.828651"
             height="16.836151"
             width="16.836151"
             id="rect1301"
             style="opacity:1;fill:none;fill-opacity:1;stroke:#000000;stroke-width:1.40915585;stroke-linecap:round;stroke-linejoin:round;stroke-miterlimit:4;stroke-dasharray:none;stroke-dashoffset:0;stroke-opacity:1;paint-order:stroke fill markers" />
          <g
             id="g1452"
             transform="translate(-0.01066953,-2.1249501e-6)">
            <path
               inkscape:connector-curvature="0"
               id="path1303"
               d="m 59.750505,193.88662 1.778465,3.51205 v 1.94144 h 0.388974 v -1.90064 l 1.75466,-3.55263 h -0.399396 l -0.219191,0.37968 -1.136073,2.29936 v -2.29936 -0.37968 h -0.388742 v 0.37968 2.27624 l -1.153759,-2.27624 -0.218962,-0.37968 z"
               style="fill:#000000;fill-rule:evenodd;stroke:none;stroke-width:0.11605591" />
            <path
               inkscape:connector-curvature="0"
               id="path1305"
               d="m 61.51764,207.7512 v 1.79071 H 59.7598 c -0.185167,0 -0.277513,0.0947 -0.277442,0.1895 3.5e-5,0.0377 0.01535,0.0752 0.04466,0.10698 h -0.0018 l 0.02018,0.0172 c 0.0031,0.002 0.0052,0.005 0.0083,0.007 l 1.973171,1.70593 0.0013,0.001 a 0.290708,0.290708 0 0 0 0.194036,0.0748 0.290708,0.290708 0 0 0 0.194035,-0.0748 l 2.00309,-1.73177 h -0.0039 c 0.03066,-0.0318 0.04669,-0.069 0.04669,-0.10677 0,-0.0948 -0.09663,-0.18949 -0.289908,-0.18949 h -1.765779 v -1.79093 z"
               style="fill:#000000;fill-rule:evenodd;stroke:none;stroke-width:0.11605591" />
            <g
               transform="translate(-2.5126343)"
               id="g1442">
              <rect
                 y="203.93459"
                 x="64.029266"
                 height="3.8159719"
                 width="0.38980359"
                 id="rect1309"
                 style="opacity:1;fill:#000000;fill-opacity:1;stroke:none;stroke-width:0.43863648;stroke-linecap:round;stroke-linejoin:round;stroke-miterlimit:4;stroke-dasharray:none;stroke-dashoffset:0;stroke-opacity:1;paint-order:stroke fill markers" />
              <rect
                 style="opacity:1;fill:#000000;fill-opacity:1;stroke:none;stroke-width:0.43863648;stroke-linecap:round;stroke-linejoin:round;stroke-miterlimit:4;stroke-dasharray:none;stroke-dashoffset:0;stroke-opacity:1;paint-order:stroke fill markers"
                 id="rect1311"
                 width="0.38980359"
                 height="2.6465611"
                 x="203.73969"
                 y="-65.547462"
                 transform="rotate(90)" />
              <rect
                 style="opacity:1;fill:#000000;fill-opacity:1;stroke:none;stroke-width:0.43863648;stroke-linecap:round;stroke-linejoin:round;stroke-miterlimit:4;stroke-dasharray:none;stroke-dashoffset:0;stroke-opacity:1;paint-order:stroke fill markers"
                 id="rect1313"
                 width="0.38980359"
                 height="3.8159719"
                 x="-64.41909"
                 y="-203.15608"
                 transform="scale(-1)" />
              <rect
                 transform="rotate(-90)"
                 y="62.900894"
                 x="-203.35098"
                 height="2.6465611"
                 width="0.38980359"
                 id="rect1315"
                 style="opacity:1;fill:#000000;fill-opacity:1;stroke:none;stroke-width:0.43863648;stroke-linecap:round;stroke-linejoin:round;stroke-miterlimit:4;stroke-dasharray:none;stroke-dashoffset:0;stroke-opacity:1;paint-order:stroke fill markers" />
              <path
                 style="fill:none;stroke:#000000;stroke-width:0.11623866;stroke-linecap:butt;stroke-linejoin:miter;stroke-miterlimit:4;stroke-dasharray:none;stroke-opacity:1;marker-end:url(#marker1327)"
                 d="m 63.161087,205.2933 2.061977,-3.57146"
                 id="path1323"
                 inkscape:connector-curvature="0" />
            </g>
          </g>
        </g>
        <g
           transform="translate(1.3471965)"
           id="g1807">
          <g
             id="g1711">
            <rect
               style="opacity:1;fill:none;fill-opacity:1;stroke:#000000;stroke-width:1.40915585;stroke-linecap:round;stroke-linejoin:round;stroke-miterlimit:4;stroke-dasharray:none;stroke-dashoffset:0;stroke-opacity:1;paint-order:stroke fill markers"
               id="rect1469"
               width="16.836151"
               height="16.836151"
               x="-42.059334"
               y="192.90231"
               ry="0"
               transform="matrix(0.50525069,-0.86297262,0.50525069,0.86297262,0,0)" />
          </g>
          <g
             id="g1775">
            <path
               inkscape:connector-curvature="0"
               id="path1471"
               d="m 82.624241,194.00218 1.778465,3.51205 v 1.94144 h 0.388974 v -1.90064 l 1.75466,-3.55263 h -0.399396 l -0.219191,0.37968 -1.136073,2.29936 v -2.29936 -0.37968 h -0.388742 v 0.37968 2.27624 l -1.153759,-2.27624 -0.218962,-0.37968 z"
               style="fill:#000000;fill-rule:evenodd;stroke:none;stroke-width:0.11605591" />
            <path
               sodipodi:nodetypes="ccscccccccssccc"
               inkscape:connector-curvature="0"
               id="path1473"
               d="m 84.380673,208.64576 v 1.79071 h -1.75784 c -0.185166,0 -0.277512,0.0947 -0.277442,0.1895 3.5e-5,0.0377 0.01535,0.0752 0.04466,0.10698 h -0.0017 l 0.02018,0.0172 c 0.0031,0.002 0.0052,0.005 0.0083,0.007 4.361732,-0.0248 0,0 4.365632,-0.0248 h -0.0039 c 0.03066,-0.0318 0.04669,-0.069 0.04669,-0.10677 0,-0.0948 -0.09663,-0.18949 -0.289908,-0.18949 h -1.765779 v -1.79093 z"
               style="fill:#000000;fill-rule:evenodd;stroke:none;stroke-width:0.11605591" />
            <path
               inkscape:connector-curvature="0"
               id="path1475"
               d="m 82.619455,199.84548 v 0.45084 c -0.211093,0.0274 -0.416244,0.0794 -0.62085,0.13737 l -0.175446,0.0601 -0.165703,0.0684 -0.1539,0.0757 -0.142575,0.0827 -0.130564,0.09 -0.11788,0.097 -0.102904,0.10427 -0.08863,0.1122 -0.07231,0.119 -0.05395,0.12626 -0.03356,0.13215 -0.0118,0.13895 0.02268,0.20536 0.06461,0.19177 0.101093,0.1725 0.129661,0.15277 0.110611,0.0979 -0.116506,0.10699 -0.127617,0.15732 -0.09928,0.17589 -0.06324,0.19471 -0.02198,0.20967 0.02154,0.21489 0.06369,0.19743 0.09996,0.1768 0.128516,0.15595 0.07594,0.0685 -0.07706,0.0696 -0.128521,0.15618 -0.09883,0.17816 -0.06369,0.19789 -0.02154,0.21579 0.02268,0.20491 0.06483,0.1895 0.100873,0.17227 0.128521,0.15323 0.118774,0.10676 -0.113331,0.0963 -0.13056,0.14802 -0.102233,0.16796 -0.06642,0.18745 -0.02312,0.20061 0.01294,0.1589 0.03873,0.1496 0.06166,0.14054 0.0825,0.13056 0.100426,0.12014 0.116055,0.11061 0.130783,0.1011 0.142356,0.092 0.1539,0.0832 0.1648,0.0753 0.174305,0.0671 0.182021,0.0583 c 0.2034,0.0582 0.410489,0.1026 0.620167,0.13283 v 0.0401 h 0.388741 v -0.37264 l -0.362441,-0.0472 -0.184517,-0.0315 -0.178157,-0.0385 -0.171138,-0.0458 -0.162524,-0.0526 -0.152777,-0.0585 -0.141447,-0.0641 -0.129656,-0.0705 -0.116059,-0.0744 -0.100865,-0.0789 -0.08635,-0.0811 -0.07027,-0.0843 -0.05394,-0.0859 -0.03829,-0.0877 -0.02334,-0.09 -0.0075,-0.0911 0.01404,-0.12217 0.03878,-0.11061 0.06483,-0.10632 0.09067,-0.10223 0.114467,-0.0979 0.05939,-0.039 c 0.201913,0.11689 0.423754,0.19649 0.645107,0.27178 l 0.205142,0.0585 0.201505,0.0474 0.195847,0.0367 0.186328,0.0263 0.173849,0.0159 0.159809,0.005 0.31212,-0.014 0.292637,-0.0401 0.267019,-0.061 0.237557,-0.0787 0.203098,-0.0936 0.167282,-0.10881 0.129657,-0.13713 0.06573,-0.19358 -0.07434,-0.17907 -0.137596,-0.11696 -0.167516,-0.0864 -0.201505,-0.0721 -0.234157,-0.0589 -0.263388,-0.0465 -0.289456,-0.0299 -0.307827,-0.0104 -0.155492,0.005 -0.170915,0.0132 -0.184736,0.0227 -0.194487,0.0324 -0.201277,0.0417 -0.204001,0.0528 c -0.221889,0.0684 -0.445343,0.14044 -0.649414,0.25048 l -0.06392,-0.0453 -0.114932,-0.10313 -0.09066,-0.1079 -0.06573,-0.1122 -0.03943,-0.11583 -0.01404,-0.12422 0.01404,-0.13849 0.03992,-0.12535 0.06483,-0.11583 0.08909,-0.10835 0.111752,-0.1011 0.107882,0.0601 0.193816,0.0868 0.200369,0.0737 0.20469,0.061 0.204453,0.0506 0.202426,0.0401 0.196751,0.0295 0.186548,0.0211 0.174989,0.012 0.475109,0.003 0.298519,-0.0295 0.268831,-0.0526 0.235513,-0.0712 0.198571,-0.0852 0.162063,-0.10019 0.127393,-0.12557 0.06642,-0.17771 -0.06597,-0.18995 -0.132828,-0.13329 -0.168419,-0.10313 -0.203549,-0.0852 -0.236417,-0.0712 -0.265664,-0.0542 -0.2915,-0.0347 -0.309406,-0.0127 -0.336373,0.0157 -0.187236,0.0202 -0.196527,0.0295 -0.201961,0.039 -0.205142,0.0501 -0.204001,0.0605 -0.200382,0.0737 -0.193119,0.0868 -0.1054,0.058 -0.112203,-0.10019 -0.08863,-0.10789 -0.06483,-0.1147 -0.04036,-0.1249 -0.01404,-0.13736 0.01404,-0.13215 0.03992,-0.12263 0.06528,-0.11606 0.08976,-0.11038 0.113339,-0.10472 0.05009,-0.0365 c 0.146312,0.0768 0.298194,0.14311 0.454489,0.19811 l 0.20422,0.0646 0.205142,0.0537 0.201961,0.0421 0.195391,0.0333 0.186328,0.0231 0.173854,0.0136 0.158668,0.004 0.309405,-0.012 0.290373,-0.0347 0.264529,-0.0528 0.234824,-0.0673 0.200838,-0.0796 0.165239,-0.0932 0.1351,-0.12104 0.07231,-0.17907 -0.06641,-0.19222 -0.132385,-0.13532 -0.167283,-0.10518 -0.203549,-0.0891 -0.236416,-0.0737 -0.266792,-0.0574 -0.291496,-0.0369 -0.310997,-0.0132 -0.162524,0.005 -0.175893,0.0154 -0.188592,0.0247 -0.196299,0.0351 -0.202645,0.0465 -0.205137,0.0574 -0.204006,0.0684 c -0.152785,0.0616 -0.305642,0.12211 -0.446545,0.20582 l -0.04533,-0.031 -0.113791,-0.10155 -0.09021,-0.10541 -0.06483,-0.11152 -0.03992,-0.11741 -0.01404,-0.12943 0.0059,-0.0728 0.01882,-0.0748 0.03263,-0.0753 0.04579,-0.0757 0.06052,-0.0768 0.07548,-0.0759 0.09021,-0.0737 0.103593,-0.0723 0.117866,-0.0678 0.130565,-0.0644 0.142587,-0.0589 0.154352,-0.0526 0.1648,-0.0469 0.174757,-0.0399 0.184065,-0.0322 0.367201,-0.0469 v -0.78383 z m 0.667776,2.30796 0.279262,0.0116 0.258634,0.0326 0.232565,0.0499 0.19879,0.0621 0.156628,0.0687 0.104045,0.0653 0.01724,0.0184 -0.113344,0.0664 -0.158659,0.0626 -0.19993,0.058 -0.233017,0.0458 -0.259313,0.0315 -0.28017,0.0107 -0.134868,-0.004 -0.323916,-0.0331 -0.17884,-0.0301 -0.184504,-0.0388 -0.18678,-0.0485 -0.183605,-0.058 -0.184736,-0.071 h -8.77e-4 c 0.116081,-0.0537 0.240667,-0.0933 0.362673,-0.13442 l 0.186329,-0.0514 0.1836,-0.0421 0.179073,-0.032 0.169546,-0.0222 0.156633,-0.0138 z m 0,1.68372 0.280842,0.0107 0.259093,0.0315 0.232114,0.0476 0.199246,0.0594 0.156628,0.0664 0.10358,0.0632 0.01904,0.0188 -0.113563,0.0748 -0.152102,0.0653 -0.194474,0.0589 -0.230302,0.0453 -0.260905,0.0252 -0.436114,-0.002 -0.328903,-0.0299 -0.179749,-0.0274 c -0.268322,-0.0521 -0.535483,-0.11436 -0.78383,-0.22599 v -4.3e-4 c 0.246724,-0.11004 0.513907,-0.17054 0.779527,-0.22214 l 0.180196,-0.027 0.170687,-0.0184 z m 8.77e-4,1.6674 0.281763,0.0102 0.261344,0.0263 0.235293,0.0415 0.201506,0.0512 0.158672,0.0562 0.106979,0.0558 -0.01904,0.0202 -0.10518,0.0685 -0.156629,0.0721 -0.197421,0.0657 -0.232114,0.0528 -0.257738,0.0351 -0.277894,0.0132 -0.132828,-0.005 -0.153461,-0.0136 -0.167283,-0.0236 -0.178156,-0.0338 -0.183614,-0.0433 -0.186091,-0.0526 -0.183605,-0.0632 -0.161387,-0.0646 v -8.8e-4 l 0.160251,-0.0589 0.184741,-0.0573 0.186091,-0.0474 0.184741,-0.0386 0.17817,-0.0295 0.320055,-0.0331 z"
               style="fill:#000000;fill-rule:evenodd;stroke:none;stroke-width:0.11605591" />
            <rect
               style="opacity:1;fill:#000000;fill-opacity:1;stroke:none;stroke-width:0.43863648;stroke-linecap:round;stroke-linejoin:round;stroke-miterlimit:4;stroke-dasharray:none;stroke-dashoffset:0;stroke-opacity:1;paint-order:stroke fill markers"
               id="rect1477"
               width="0.38980359"
               height="3.8159719"
               x="86.902992"
               y="204.43996" />
            <rect
               transform="rotate(90)"
               y="-88.421196"
               x="204.24506"
               height="2.6465611"
               width="0.38980359"
               id="rect1479"
               style="opacity:1;fill:#000000;fill-opacity:1;stroke:none;stroke-width:0.43863648;stroke-linecap:round;stroke-linejoin:round;stroke-miterlimit:4;stroke-dasharray:none;stroke-dashoffset:0;stroke-opacity:1;paint-order:stroke fill markers" />
            <rect
               transform="scale(-1)"
               y="-203.66145"
               x="-87.292824"
               height="3.8159719"
               width="0.38980359"
               id="rect1481"
               style="opacity:1;fill:#000000;fill-opacity:1;stroke:none;stroke-width:0.43863648;stroke-linecap:round;stroke-linejoin:round;stroke-miterlimit:4;stroke-dasharray:none;stroke-dashoffset:0;stroke-opacity:1;paint-order:stroke fill markers" />
            <rect
               style="opacity:1;fill:#000000;fill-opacity:1;stroke:none;stroke-width:0.43863648;stroke-linecap:round;stroke-linejoin:round;stroke-miterlimit:4;stroke-dasharray:none;stroke-dashoffset:0;stroke-opacity:1;paint-order:stroke fill markers"
               id="rect1483"
               width="0.38980359"
               height="2.6465611"
               x="-203.85635"
               y="85.77462"
               transform="rotate(-90)" />
            <rect
               transform="rotate(-90)"
               y="82.619461"
               x="-199.84549"
               height="4.6736064"
               width="0.38980359"
               id="rect1485"
               style="opacity:1;fill:#000000;fill-opacity:1;stroke:none;stroke-width:0.43863648;stroke-linecap:round;stroke-linejoin:round;stroke-miterlimit:4;stroke-dasharray:none;stroke-dashoffset:0;stroke-opacity:1;paint-order:stroke fill markers" />
            <rect
               style="opacity:1;fill:#000000;fill-opacity:1;stroke:none;stroke-width:0.43863645;stroke-linecap:round;stroke-linejoin:round;stroke-miterlimit:4;stroke-dasharray:none;stroke-dashoffset:0;stroke-opacity:1;paint-order:stroke fill markers"
               id="rect1487"
               width="0.38980359"
               height="4.5632486"
               x="-208.64572"
               y="82.729546"
               transform="rotate(-90)" />
            <rect
               transform="scale(-1)"
               y="-208.25592"
               x="-83.119354"
               height="0.23210567"
               width="0.38980359"
               id="rect1489"
               style="opacity:1;fill:#000000;fill-opacity:1;stroke:none;stroke-width:0.43863648;stroke-linecap:round;stroke-linejoin:round;stroke-miterlimit:4;stroke-dasharray:none;stroke-dashoffset:0;stroke-opacity:1;paint-order:stroke fill markers" />
            <path
               inkscape:connector-curvature="0"
               id="path1491"
               d="m 86.034815,205.79866 2.061977,-3.57146"
               style="fill:none;stroke:#000000;stroke-width:0.11623866;stroke-linecap:butt;stroke-linejoin:miter;stroke-miterlimit:4;stroke-dasharray:none;stroke-opacity:1;marker-end:url(#Arrow1Mend)" />
            <path
               style="fill:#000000;fill-rule:evenodd;stroke:none;stroke-width:0.11605591"
               d="m 82.624241,194.00218 1.778465,3.51205 v 1.94144 h 0.388974 v -1.90064 l 1.75466,-3.55263 h -0.399396 l -0.219191,0.37968 -1.136073,2.29936 v -2.29936 -0.37968 h -0.388742 v 0.37968 2.27624 l -1.153759,-2.27624 -0.218962,-0.37968 z"
               id="path1514"
               inkscape:connector-curvature="0" />
            <path
               sodipodi:nodetypes="ccccc"
               inkscape:connector-curvature="0"
               id="rect1517"
               d="m 82.802186,194.35358 h 3.570705 l 0.173449,-0.35118 h -3.922096 z"
               style="opacity:1;fill:#000000;fill-opacity:1;stroke:none;stroke-width:0.09999999;stroke-linecap:round;stroke-linejoin:round;stroke-miterlimit:4;stroke-dasharray:none;stroke-dashoffset:0;stroke-opacity:1;paint-order:stroke fill markers" />
            <path
               inkscape:connector-curvature="0"
               id="path1520"
               d="m 82.880063,210.87608 c -0.160901,0 -0.241198,0.0948 -0.241138,0.18965 3e-5,0.0377 0.0136,0.0752 0.03907,0.10697 h -0.0018 l 0.01751,0.017 c 0.0027,0.002 0.0045,0.005 0.0072,0.007 3.787024,-0.0248 0.01254,-1.1e-4 3.790403,-0.0248 0.02664,-0.0318 0.04041,-0.0692 0.04041,-0.10697 0,-0.0948 -0.08397,-0.18913 -0.251914,-0.18913 h -1.534393 -0.337683 z"
               style="fill:#000000;fill-rule:evenodd;stroke:none;stroke-width:0.11605591" />
            <path
               style="fill:#000000;fill-rule:evenodd;stroke:none;stroke-width:0.11605591"
               d="m 83.22777,211.31565 c -0.128092,0 -0.192017,0.0948 -0.191969,0.18965 2.4e-5,0.0377 0.01083,0.0752 0.0311,0.10697 h -0.0014 l 0.01394,0.017 c 0.0022,0.002 0.0036,0.005 0.0057,0.007 3.014841,-0.0248 0.01,-1.1e-4 3.017531,-0.0248 0.02121,-0.0318 0.03217,-0.0692 0.03217,-0.10697 0,-0.0948 -0.06685,-0.18913 -0.200548,-0.18913 h -1.221527 -0.268828 z"
               id="path1525"
               inkscape:connector-curvature="0" />
            <path
               inkscape:connector-curvature="0"
               id="path1527"
               d="m 83.539266,211.75521 c -0.0987,0 -0.147959,0.0948 -0.147922,0.18965 1.9e-5,0.0377 0.0083,0.0752 0.02396,0.10697 h -0.0011 l 0.01074,0.017 c 0.0017,0.002 0.0028,0.005 0.0044,0.007 2.323093,-0.0248 0.0077,-1.1e-4 2.325166,-0.0248 0.01634,-0.0318 0.02479,-0.0692 0.02479,-0.10697 0,-0.0948 -0.05151,-0.18913 -0.154533,-0.18913 H 84.683516 84.47637 Z"
               style="fill:#000000;fill-rule:evenodd;stroke:none;stroke-width:0.11605592" />
            <path
               style="fill:#000000;fill-rule:evenodd;stroke:none;stroke-width:0.11605591"
               d="m 83.926779,212.19477 c -0.06213,0 -0.09314,0.0948 -0.09312,0.18965 1.2e-5,0.0377 0.0052,0.0752 0.01508,0.10697 h -6.92e-4 l 0.0068,0.017 c 0.0011,0.002 0.0018,0.005 0.0028,0.007 1.462423,-0.0248 0.0048,-1.1e-4 1.463728,-0.0248 0.01029,-0.0318 0.01561,-0.0692 0.01561,-0.10697 0,-0.0948 -0.03243,-0.18913 -0.09728,-0.18913 h -0.592532 -0.130402 z"
               id="path1529"
               inkscape:connector-curvature="0" />
            <path
               inkscape:connector-curvature="0"
               id="path1531"
               d="m 84.263612,212.63432 c -0.03035,0 -0.0455,0.0948 -0.04549,0.18965 5e-6,0.0377 0.0025,0.0752 0.0074,0.10697 h -3.38e-4 l 0.0033,0.017 c 5.37e-4,0.002 8.79e-4,0.005 0.0014,0.007 0.714399,-0.0248 0.0023,-1.1e-4 0.715037,-0.0248 0.005,-0.0318 0.0076,-0.0692 0.0076,-0.10697 0,-0.0948 -0.01584,-0.18913 -0.04752,-0.18913 h -0.289455 -0.0637 z"
               style="fill:#000000;fill-rule:evenodd;stroke:none;stroke-width:0.11605591" />
          </g>
        </g>
        <g
           id="g1784">
          <rect
             style="opacity:1;fill:none;fill-opacity:1;stroke:#000000;stroke-width:1.40915585;stroke-linecap:round;stroke-linejoin:round;stroke-miterlimit:4;stroke-dasharray:none;stroke-dashoffset:0;stroke-opacity:1;paint-order:stroke fill markers"
             id="rect1553"
             width="16.836151"
             height="16.836151"
             x="-16.305544"
             y="218.65611"
             ry="0"
             transform="matrix(0.50525069,-0.86297262,0.50525069,0.86297262,0,0)" />
          <g
             id="g1755">
            <path
               style="opacity:1;fill:#000000;fill-opacity:1;stroke:none;stroke-width:0.09999999;stroke-linecap:round;stroke-linejoin:round;stroke-miterlimit:4;stroke-dasharray:none;stroke-dashoffset:0;stroke-opacity:1;paint-order:stroke fill markers"
               d="m 108.8289,194.35358 h 3.5707 l 0.17345,-0.35118 h -3.9221 z"
               id="path1563"
               inkscape:connector-curvature="0"
               sodipodi:nodetypes="ccccc" />
            <g
               id="g1561"
               transform="translate(74.402667,0.11658446)">
              <path
                 inkscape:connector-curvature="0"
                 id="path1555"
                 d="m 34.248286,193.8856 1.778465,3.51205 v 1.94144 h 0.388974 v -1.90064 l 1.75466,-3.55263 h -0.399396 l -0.219191,0.37968 -1.136073,2.29936 v -2.29936 -0.37968 h -0.388742 v 0.37968 2.27624 l -1.153759,-2.27624 -0.218962,-0.37968 z"
                 style="fill:#000000;fill-rule:evenodd;stroke:none;stroke-width:0.11605591" />
              <path
                 inkscape:connector-curvature="0"
                 id="path1557"
                 d="m 36.136974,207.51906 v 1.79071 h -1.75784 c -0.185166,0 -0.277512,0.0947 -0.277442,0.1895 3.5e-5,0.0377 0.01535,0.0752 0.04466,0.10698 h -0.0018 l 0.02018,0.0172 c 0.0031,0.002 0.0052,0.005 0.0083,0.007 l 1.973171,1.70593 0.0013,0.001 a 0.290708,0.290708 0 0 0 0.194036,0.0748 0.290708,0.290708 0 0 0 0.194035,-0.0748 l 2.00309,-1.73177 h -0.0039 c 0.03066,-0.0318 0.04669,-0.069 0.04669,-0.10677 0,-0.0948 -0.09663,-0.18949 -0.289908,-0.18949 h -1.765779 v -1.79093 z"
                 style="fill:#000000;fill-rule:evenodd;stroke:none;stroke-width:0.11605591" />
              <path
                 inkscape:connector-curvature="0"
                 id="path1559"
                 d="m 36.026404,199.34012 v 0.45084 c -0.211093,0.0274 -0.416244,0.0794 -0.62085,0.13737 l -0.175446,0.0601 -0.165703,0.0684 -0.1539,0.0757 -0.142575,0.0827 -0.130564,0.09 -0.11788,0.097 -0.102904,0.10427 -0.08863,0.1122 -0.07231,0.119 -0.05395,0.12626 -0.03356,0.13215 -0.0118,0.13895 0.02268,0.20536 0.06461,0.19177 0.101093,0.1725 0.129661,0.15277 0.110611,0.0979 -0.116506,0.10699 -0.127617,0.15732 -0.09928,0.17589 -0.06324,0.19471 -0.02198,0.20967 0.02154,0.21489 0.06369,0.19743 0.09996,0.1768 0.128516,0.15595 0.07594,0.0685 -0.07706,0.0696 -0.128521,0.15618 -0.09883,0.17816 -0.06369,0.19789 -0.02154,0.21579 0.02268,0.20491 0.06483,0.1895 0.100873,0.17227 0.128521,0.15323 0.118774,0.10676 -0.113331,0.0963 -0.13056,0.14802 -0.102233,0.16796 -0.06642,0.18745 -0.02312,0.20061 0.01294,0.1589 0.03873,0.1496 0.06166,0.14054 0.0825,0.13056 0.100426,0.12014 0.116055,0.11061 0.130783,0.1011 0.142356,0.092 0.1539,0.0832 0.1648,0.0753 0.174305,0.0671 0.182021,0.0583 c 0.2034,0.0582 0.410489,0.1026 0.620167,0.13283 v 0.0401 h 0.388741 v -0.37264 l -0.362441,-0.0472 -0.184517,-0.0315 -0.178157,-0.0385 -0.171138,-0.0458 -0.162524,-0.0526 -0.152777,-0.0585 -0.141447,-0.0641 -0.129656,-0.0705 -0.116059,-0.0744 -0.100865,-0.0789 -0.08635,-0.0811 -0.07027,-0.0843 -0.05394,-0.0859 -0.03829,-0.0877 -0.02334,-0.09 -0.0075,-0.0911 0.01404,-0.12217 0.03878,-0.11061 0.06483,-0.10632 0.09068,-0.10223 0.114467,-0.0979 0.05939,-0.039 c 0.201913,0.11689 0.423754,0.19649 0.645107,0.27178 l 0.205142,0.0585 0.201505,0.0474 0.195847,0.0367 0.186328,0.0263 0.173849,0.0159 0.159809,0.005 0.31212,-0.014 0.292637,-0.0401 0.267019,-0.061 0.237557,-0.0787 0.203098,-0.0936 0.167282,-0.10881 0.129657,-0.13713 0.06573,-0.19358 -0.07434,-0.17907 -0.137596,-0.11696 -0.167516,-0.0864 -0.201505,-0.0721 -0.234157,-0.0589 -0.263388,-0.0465 -0.289456,-0.0299 -0.307827,-0.0104 -0.155492,0.005 -0.170915,0.0132 -0.184736,0.0227 -0.194487,0.0324 -0.201277,0.0417 -0.204001,0.0528 c -0.221889,0.0684 -0.445343,0.14044 -0.649414,0.25048 l -0.06392,-0.0453 -0.114932,-0.10313 -0.09066,-0.1079 -0.06573,-0.1122 -0.03943,-0.11583 -0.01404,-0.12422 0.01404,-0.13849 0.03992,-0.12535 0.06483,-0.11583 0.08909,-0.10835 0.111752,-0.1011 0.107882,0.0601 0.193816,0.0868 0.200369,0.0737 0.20469,0.061 0.204453,0.0506 0.202426,0.0401 0.196751,0.0295 0.186548,0.0211 0.174989,0.012 0.475109,0.003 0.298519,-0.0295 0.268831,-0.0526 0.235513,-0.0712 0.198571,-0.0852 0.162063,-0.10019 0.127393,-0.12557 0.06642,-0.17771 -0.06597,-0.18995 -0.132828,-0.13329 -0.168419,-0.10313 -0.203549,-0.0852 -0.236417,-0.0712 -0.265664,-0.0542 -0.2915,-0.0347 -0.309406,-0.0127 -0.336373,0.0157 -0.187236,0.0202 -0.196527,0.0295 -0.201961,0.039 -0.205142,0.0501 -0.204001,0.0605 -0.200382,0.0737 -0.193119,0.0868 -0.1054,0.058 -0.112203,-0.10019 -0.08863,-0.10789 -0.06483,-0.1147 -0.04035,-0.1249 -0.01404,-0.13736 0.01404,-0.13215 0.03992,-0.12263 0.06528,-0.11606 0.08976,-0.11038 0.113339,-0.10472 0.05009,-0.0365 c 0.146312,0.0768 0.298194,0.14311 0.454489,0.19811 l 0.20422,0.0646 0.205142,0.0537 0.201961,0.0421 0.195391,0.0333 0.186328,0.0231 0.173854,0.0136 0.158668,0.004 0.309405,-0.012 0.290373,-0.0347 0.264529,-0.0528 0.234824,-0.0673 0.200838,-0.0796 0.165239,-0.0932 0.1351,-0.12104 0.07231,-0.17907 -0.06641,-0.19222 -0.132385,-0.13532 -0.167283,-0.10518 -0.203549,-0.0891 -0.236416,-0.0737 -0.266792,-0.0574 -0.291496,-0.0369 -0.310997,-0.0132 -0.162524,0.005 -0.175893,0.0154 -0.188592,0.0247 -0.196299,0.0351 -0.202645,0.0465 -0.205137,0.0574 -0.204006,0.0684 c -0.152785,0.0616 -0.305642,0.12211 -0.446545,0.20582 l -0.04533,-0.031 -0.113791,-0.10155 -0.09021,-0.10541 -0.06483,-0.11152 -0.03992,-0.11741 -0.01404,-0.12943 0.0059,-0.0728 0.01882,-0.0748 0.03264,-0.0753 0.04578,-0.0757 0.06052,-0.0768 0.07548,-0.0759 0.09021,-0.0737 0.103593,-0.0723 0.117866,-0.0678 0.130565,-0.0644 0.142587,-0.0589 0.154352,-0.0526 0.1648,-0.0469 0.174757,-0.0399 0.184065,-0.0322 0.367201,-0.0469 v -0.78383 z m 0.667776,2.30796 0.279262,0.0116 0.258634,0.0326 0.232565,0.0499 0.19879,0.0621 0.156628,0.0687 0.104045,0.0653 0.01724,0.0184 -0.113344,0.0664 -0.158659,0.0626 -0.19993,0.058 -0.233017,0.0458 -0.259313,0.0315 -0.28017,0.0107 -0.134868,-0.004 -0.323916,-0.0331 -0.17884,-0.0301 -0.184504,-0.0388 -0.18678,-0.0485 -0.183605,-0.058 -0.184736,-0.071 h -8.77e-4 c 0.116081,-0.0537 0.240667,-0.0933 0.362673,-0.13442 l 0.186329,-0.0514 0.1836,-0.0421 0.179073,-0.032 0.169546,-0.0222 0.156633,-0.0138 z m 0,1.68372 0.280842,0.0107 0.259093,0.0315 0.232114,0.0476 0.199246,0.0594 0.156628,0.0664 0.10358,0.0632 0.01904,0.0188 -0.113563,0.0748 -0.152102,0.0653 -0.194474,0.0589 -0.230302,0.0453 -0.260905,0.0252 -0.436114,-0.002 -0.328903,-0.0299 -0.179749,-0.0274 c -0.268322,-0.0521 -0.535483,-0.11436 -0.78383,-0.22599 v -4.3e-4 c 0.246724,-0.11004 0.513907,-0.17054 0.779527,-0.22214 l 0.180196,-0.027 0.170687,-0.0184 z m 8.77e-4,1.6674 0.281763,0.0102 0.261344,0.0263 0.235293,0.0415 0.201506,0.0512 0.158672,0.0562 0.106979,0.0558 -0.01904,0.0202 -0.10518,0.0685 -0.156629,0.0721 -0.197421,0.0657 -0.232114,0.0528 -0.257738,0.0351 -0.277894,0.0132 -0.132828,-0.005 -0.153461,-0.0136 -0.167283,-0.0236 -0.178156,-0.0338 -0.183614,-0.0433 -0.186091,-0.0526 -0.183605,-0.0632 -0.161387,-0.0646 v -8.8e-4 l 0.160251,-0.0589 0.184741,-0.0573 0.186091,-0.0474 0.184741,-0.0386 0.17817,-0.0295 0.320055,-0.0331 z"
                 style="fill:#000000;fill-rule:evenodd;stroke:none;stroke-width:0.11605591" />
            </g>
          </g>
        </g>
      </g>
    </g>
  </g>
</svg>
